<svg xmlns="http://www.w3.org/2000/svg" viewBox="0 0 65.67 17"><defs><style>.cls-1{fill:#c7202f;}.cls-2{fill:#fff;}</style></defs><title>CTA_StartToday</title><g id="Layer_2" data-name="Layer 2"><g id="Layer_1-2" data-name="Layer 1"><rect class="cls-1" x="0.5" y="0.5" width="64.67" height="16"/><path class="cls-2" d="M64.67,1V16H1V1H64.67m1-1H0V17H65.67V0Z"/><path class="cls-2" d="M8.61,6.31c-.06-.74-.46-1-.79-1s-.74.31-.74.85c0,1.48,3,2.18,3,4.53a2.12,2.12,0,0,1-2.35,2.22,2.28,2.28,0,0,1-2.23-2.4l1.42-.2c.06.88.41,1.31.89,1.31a.76.76,0,0,0,.86-.79c0-1.72-3-2.17-3-4.65A2,2,0,0,1,8,4.05,2.08,2.08,0,0,1,10,6.15Z"/><path class="cls-2" d="M12.09,5.47H10.65V4.17H15v1.3H13.57v7.36H12.09Z"/><path class="cls-2" d="M16.54,12.83H15.1l1.6-8.66h1.85l1.59,8.66H18.7l-.26-1.92H16.8ZM17,9.62h1.2L17.63,5.9h0Z"/><path class="cls-2" d="M22.49,12.83H21V4.17h2.09c1.67,0,2.52.71,2.52,2.55,0,1.39-.54,2-1,2.18l1.26,3.92H24.31L23.26,9.24a7.19,7.19,0,0,1-.77,0Zm0-4.77H23c.8,0,1.1-.3,1.1-1.33s-.3-1.33-1.1-1.33h-.53Z"/><path class="cls-2" d="M27.87,5.47H26.43V4.17h4.37v1.3H29.35v7.36H27.87Z"/><path class="cls-2" d="M35.2,5.47H33.76V4.17h4.37v1.3H36.68v7.36H35.2Z"/><path class="cls-2" d="M39,6.27a2.28,2.28,0,0,1,4.56,0v4.46a2.28,2.28,0,0,1-4.56,0Zm1.49,4.43c0,.65.19,1,.79,1s.79-.31.79-1V6.31c0-.65-.19-1-.79-1s-.79.31-.79,1Z"/><path class="cls-2" d="M45,4.17h2.21c1.54,0,2.35.84,2.35,2.61v3.43c0,1.78-.82,2.61-2.35,2.61H45Zm1.49,7.44H47c.79,0,1.07-.3,1.07-1.21V6.6c0-.91-.28-1.21-1.07-1.21h-.52Z"/><path class="cls-2" d="M51.87,12.83H50.43L52,4.17h1.85l1.6,8.66H54l-.26-1.92H52.13Zm.48-3.21h1.2L53,5.9h0Z"/><path class="cls-2" d="M58.36,12.83H56.87V9.23l-1.8-5.06h1.51l1,3.3h0l1-3.3h1.51l-1.8,5.06Z"/></g></g></svg>