<svg xmlns="http://www.w3.org/2000/svg" viewBox="0 0 57.42 28.17"><defs><style>.cls-1{fill:#c7202f;}.cls-2{fill:#fff;}</style></defs><title>Speech_2</title><g id="Layer_2" data-name="Layer 2"><g id="Layer_1-2" data-name="Layer 1"><path class="cls-1" d="M52.88,0H13A4.53,4.53,0,0,0,8.42,4.53v17.3L0,28.17H52.88a4.53,4.53,0,0,0,4.53-4.53V4.53A4.53,4.53,0,0,0,52.88,0Z"/><path class="cls-2" d="M13.9,11H12.46V9.75h4.37V11H15.38v7.36H13.9Z"/><path class="cls-2" d="M19.19,18.41H17.7V9.75h2.09c1.67,0,2.52.71,2.52,2.55,0,1.39-.54,2-1,2.18l1.26,3.92H21L20,14.83a7.19,7.19,0,0,1-.77,0Zm0-4.77h.53c.8,0,1.1-.3,1.1-1.33S20.52,11,19.72,11h-.53Z"/><path class="cls-2" d="M26.17,18.41H24.68v-3.6l-1.8-5.06H24.4l1,3.3h0l1-3.3H28l-1.8,5.06Z"/><path class="cls-2" d="M34.16,18.41H32.68v-3.6l-1.8-5.06h1.51l1,3.3h0l1-3.3H36l-1.8,5.06Z"/><path class="cls-2" d="M36.81,11.85a2.08,2.08,0,0,1,2.28-2.22,2.08,2.08,0,0,1,2.28,2.22v4.46a2.08,2.08,0,0,1-2.28,2.22,2.08,2.08,0,0,1-2.28-2.22Zm1.49,4.43c0,.65.19,1,.79,1s.79-.31.79-1V11.89c0-.65-.19-1-.79-1s-.79.31-.79,1Z"/><path class="cls-2" d="M44.86,14h2.43v4.39h-.72l-.28-.65a1.73,1.73,0,0,1-1.5.77,2,2,0,0,1-2-2.22V11.85A2.05,2.05,0,0,1,45,9.63,2.16,2.16,0,0,1,47.22,12v.55H45.8c0-1.3-.26-1.63-.85-1.63-.36,0-.66.22-.66.95v4.45c0,.55.18.91.7.91s.82-.34.82-1.2V15.2h-.95Z"/><path class="cls-2" d="M49.67,18.41H48.23l1.6-8.66h1.85l1.6,8.66H51.83l-.26-1.92H49.93Zm.48-3.21h1.2l-.59-3.72h0Z"/></g></g></svg>