<svg xmlns="http://www.w3.org/2000/svg" viewBox="0 0 57.42 28.17"><defs><style>.cls-1{fill:#c7202f;}.cls-2{fill:#fff;}</style></defs><title>Speech_3_Flipped</title><g id="Layer_2" data-name="Layer 2"><g id="Layer_1-2" data-name="Layer 1"><path class="cls-1" d="M4.53,28.17H44.47A4.53,4.53,0,0,0,49,23.63V6.33L57.42,0H4.53A4.53,4.53,0,0,0,0,4.53v19.1A4.53,4.53,0,0,0,4.53,28.17Z"/><path class="cls-2" d="M8.52,8.35H11v4.39h-.72L10,12.1a1.73,1.73,0,0,1-1.5.77,2,2,0,0,1-2-2.22V6.18A2.05,2.05,0,0,1,8.65,4a2.16,2.16,0,0,1,2.23,2.38v.55H9.47c0-1.3-.26-1.63-.85-1.63-.36,0-.66.22-.66.95v4.45c0,.55.18.91.7.91s.82-.34.82-1.2V9.53H8.52Z"/><path class="cls-2" d="M12.47,6.18A2.08,2.08,0,0,1,14.75,4,2.08,2.08,0,0,1,17,6.18v4.46a2.08,2.08,0,0,1-2.28,2.22,2.08,2.08,0,0,1-2.28-2.22ZM14,10.61c0,.65.19,1,.79,1s.79-.31.79-1V6.22c0-.65-.19-1-.79-1s-.79.31-.79,1Z"/><path class="cls-2" d="M24.13,7V6.3c0-.73-.34-1-.72-1-.6,0-.79.31-.79,1v4.39c0,.65.19,1,.79,1s.72-.31.72-.88v-1h1.49v1a2.06,2.06,0,0,1-2.21,2.22,2.08,2.08,0,0,1-2.28-2.22V6.18A2.08,2.08,0,0,1,23.41,4a2.15,2.15,0,0,1,2.21,2.38V7Z"/><path class="cls-2" d="M27.13,6.18A2.08,2.08,0,0,1,29.41,4a2.08,2.08,0,0,1,2.28,2.22v4.46a2.08,2.08,0,0,1-2.28,2.22,2.08,2.08,0,0,1-2.28-2.22Zm1.49,4.43c0,.65.19,1,.79,1s.79-.31.79-1V6.22c0-.65-.19-1-.79-1s-.79.31-.79,1Z"/><path class="cls-2" d="M33.06,12.74V4.08h1.49v7.36h2.34v1.3Z"/><path class="cls-2" d="M37.8,4.08H40c1.54,0,2.35.84,2.35,2.61v3.43c0,1.78-.82,2.61-2.35,2.61H37.8Zm1.49,7.44h.52c.79,0,1.07-.3,1.07-1.21V6.52c0-.91-.28-1.21-1.07-1.21h-.52Z"/><path class="cls-2" d="M9.66,16.72H8.22v-1.3h4.37v1.3H11.15v7.36H9.66Z"/><path class="cls-2" d="M13.46,15.42H15V22c0,.64.25.95.79.95s.79-.31.79-.95V15.42H18V21.9a2.09,2.09,0,0,1-2.28,2.3,2.09,2.09,0,0,1-2.28-2.3Z"/><path class="cls-2" d="M21,24.08H19.46V15.42h2.09c1.67,0,2.52.71,2.52,2.55,0,1.39-.54,2-1,2.18l1.26,3.92H22.78L21.72,20.5a7.19,7.19,0,0,1-.77,0Zm0-4.77h.53c.8,0,1.1-.3,1.1-1.33s-.3-1.33-1.1-1.33H21Z"/><path class="cls-2" d="M25.39,24.08V15.42h1.49v3.2h0l1.56-3.2H30l-1.61,3.23,1.81,5.43H28.64l-1.21-4h0l-.53,1v3.07Z"/><path class="cls-2" d="M30.79,24.08V15.42h4v1.3H32.28v2.23H34.2v1.3H32.28v2.54h2.66v1.3Z"/><path class="cls-2" d="M38.81,24.08H37.32v-3.6l-1.8-5.06H37l1,3.3h0l1-3.3h1.51l-1.8,5.06Z"/></g></g></svg>