<svg xmlns="http://www.w3.org/2000/svg" viewBox="0 0 57.42 28.17"><defs><style>.cls-1{fill:#c7202f;}.cls-2{fill:#fff;}</style></defs><title>Speech_1</title><g id="Layer_2" data-name="Layer 2"><g id="Layer_1-2" data-name="Layer 1"><path class="cls-1" d="M4.53,0H44.47A4.53,4.53,0,0,1,49,4.53v17.3l8.42,6.33H4.53A4.53,4.53,0,0,1,0,23.63V4.53A4.53,4.53,0,0,1,4.53,0Z"/><path class="cls-2" d="M5.42,11.54h.31c.58,0,.78-.24.78-.72V4.05H8V11c0,1.1-.44,1.85-2.09,1.85H5.42Z"/><path class="cls-2" d="M9.44,4.05h1.49v6.54c0,.64.25.95.79.95s.79-.31.79-.95V4.05H14v6.48a2.09,2.09,0,0,1-2.28,2.3,2.09,2.09,0,0,1-2.28-2.3Z"/><path class="cls-2" d="M18.15,6.19c-.06-.74-.46-1-.79-1s-.74.31-.74.85c0,1.48,3,2.18,3,4.53a2.12,2.12,0,0,1-2.35,2.22,2.28,2.28,0,0,1-2.23-2.4l1.42-.2c.06.88.41,1.31.89,1.31a.76.76,0,0,0,.86-.79c0-1.72-3-2.17-3-4.65a2,2,0,0,1,2.3-2.16A2.08,2.08,0,0,1,19.57,6Z"/><path class="cls-2" d="M21.63,5.35H20.19V4.05h4.37v1.3H23.12v7.36H21.63Z"/><path class="cls-2" d="M28.1,4.05h1.49v6.54c0,.64.25.95.79.95s.79-.31.79-.95V4.05h1.49v6.48a2.09,2.09,0,0,1-2.28,2.3,2.09,2.09,0,0,1-2.28-2.3Z"/><path class="cls-2" d="M36.81,6.19c-.06-.74-.46-1-.79-1s-.74.31-.74.85c0,1.48,3,2.18,3,4.53a2.12,2.12,0,0,1-2.35,2.22,2.28,2.28,0,0,1-2.23-2.4l1.42-.2c.06.88.41,1.31.89,1.31a.76.76,0,0,0,.86-.79c0-1.72-3-2.17-3-4.65a2,2,0,0,1,2.3-2.16A2.08,2.08,0,0,1,38.23,6Z"/><path class="cls-2" d="M39.43,12.71V4.05h4v1.3h-2.5V7.58h1.92v1.3H40.92v2.54h2.66v1.3Z"/><path class="cls-2" d="M8.52,24.11H7.08l1.6-8.66h1.85l1.6,8.66H10.68l-.26-1.92H8.79ZM9,20.9h1.2l-.59-3.72h0Z"/><path class="cls-2" d="M15.65,24.11V15.45h2.13c1.83,0,2.69.71,2.69,2.55s-.85,2.55-2.69,2.55h-.65v3.55Zm1.49-4.77h.58c1,0,1.27-.3,1.27-1.33s-.3-1.33-1.27-1.33h-.58Z"/><path class="cls-2" d="M22.51,24.11H21.08l1.6-8.66h1.85l1.6,8.66H24.67l-.26-1.92H22.78ZM23,20.9h1.2l-.59-3.72h0Z"/><path class="cls-2" d="M27.4,16.75H26v-1.3h4.37v1.3H28.89v7.36H27.4Z"/><path class="cls-2" d="M34.2,18.34v-.67c0-.73-.34-1-.72-1-.6,0-.79.31-.79,1V22c0,.65.19,1,.79,1s.72-.31.72-.88V21h1.49v1a2.06,2.06,0,0,1-2.21,2.22A2.08,2.08,0,0,1,31.2,22V17.55a2.08,2.08,0,0,1,2.28-2.22,2.15,2.15,0,0,1,2.21,2.37v.64Z"/><path class="cls-2" d="M37.2,24.11V15.45h1.49V19h1.58V15.45h1.49v8.66H40.27V20.27H38.69v3.84Z"/></g></g></svg>