<svg xmlns="http://www.w3.org/2000/svg" viewBox="0 0 57.42 28.17"><defs><style>.cls-1{fill:#c7202f;}.cls-2{fill:#fff;}</style></defs><title>Speech_3</title><g id="Layer_2" data-name="Layer 2"><g id="Layer_1-2" data-name="Layer 1"><path class="cls-1" d="M52.88,28.17H13a4.53,4.53,0,0,1-4.53-4.53V6.33L0,0H52.88a4.53,4.53,0,0,1,4.53,4.53v19.1A4.53,4.53,0,0,1,52.88,28.17Z"/><path class="cls-2" d="M16.47,8.35h2.43v4.39h-.72l-.28-.65a1.73,1.73,0,0,1-1.5.77,2,2,0,0,1-2-2.22V6.18A2.05,2.05,0,0,1,16.6,4a2.16,2.16,0,0,1,2.23,2.38v.55H17.42c0-1.3-.26-1.63-.85-1.63-.36,0-.66.22-.66.95v4.45c0,.55.18.91.7.91s.82-.34.82-1.2V9.53h-.95Z"/><path class="cls-2" d="M20.42,6.18A2.08,2.08,0,0,1,22.7,4,2.08,2.08,0,0,1,25,6.18v4.46a2.08,2.08,0,0,1-2.28,2.22,2.08,2.08,0,0,1-2.28-2.22Zm1.49,4.43c0,.65.19,1,.79,1s.79-.31.79-1V6.22c0-.65-.19-1-.79-1s-.79.31-.79,1Z"/><path class="cls-2" d="M32.08,7V6.3c0-.73-.34-1-.72-1-.6,0-.79.31-.79,1v4.39c0,.65.19,1,.79,1s.72-.31.72-.88v-1h1.49v1a2.06,2.06,0,0,1-2.21,2.22,2.08,2.08,0,0,1-2.28-2.22V6.18A2.08,2.08,0,0,1,31.36,4a2.15,2.15,0,0,1,2.21,2.38V7Z"/><path class="cls-2" d="M35.08,6.18A2.08,2.08,0,0,1,37.36,4a2.08,2.08,0,0,1,2.28,2.22v4.46a2.08,2.08,0,0,1-2.28,2.22,2.08,2.08,0,0,1-2.28-2.22Zm1.49,4.43c0,.65.19,1,.79,1s.79-.31.79-1V6.22c0-.65-.19-1-.79-1s-.79.31-.79,1Z"/><path class="cls-2" d="M41,12.74V4.08H42.5v7.36h2.34v1.3Z"/><path class="cls-2" d="M45.75,4.08H48c1.54,0,2.35.84,2.35,2.61v3.43c0,1.78-.82,2.61-2.35,2.61H45.75Zm1.49,7.44h.52c.79,0,1.07-.3,1.07-1.21V6.52c0-.91-.28-1.21-1.07-1.21h-.52Z"/><path class="cls-2" d="M17.61,16.72H16.17v-1.3h4.37v1.3H19.1v7.36H17.61Z"/><path class="cls-2" d="M21.42,15.42H22.9V22c0,.64.25.95.79.95s.79-.31.79-.95V15.42H26V21.9a2.09,2.09,0,0,1-2.28,2.3,2.09,2.09,0,0,1-2.28-2.3Z"/><path class="cls-2" d="M28.9,24.08H27.42V15.42H29.5c1.67,0,2.52.71,2.52,2.55,0,1.39-.54,2-1,2.18l1.26,3.92H30.73L29.67,20.5a7.19,7.19,0,0,1-.77,0Zm0-4.77h.53c.8,0,1.1-.3,1.1-1.33s-.3-1.33-1.1-1.33H28.9Z"/><path class="cls-2" d="M33.34,24.08V15.42h1.49v3.2h0l1.56-3.2H37.9l-1.61,3.23,1.81,5.43H36.59l-1.21-4h0l-.53,1v3.07Z"/><path class="cls-2" d="M38.74,24.08V15.42h4v1.3H40.23v2.23h1.92v1.3H40.23v2.54h2.66v1.3Z"/><path class="cls-2" d="M46.76,24.08H45.27v-3.6l-1.8-5.06H45l1,3.3h0l1-3.3h1.51l-1.8,5.06Z"/></g></g></svg>