<svg xmlns="http://www.w3.org/2000/svg" viewBox="0 0 107.36 23.48"><defs><style>.cls-1{fill:#fff;}</style></defs><title>Text_QuitSmoking_728</title><g id="Layer_2" data-name="Layer 2"><g id="Layer_1-2" data-name="Layer 1"><path class="cls-1" d="M26.54,1.42H25.1V.12h4.37v1.3H28V8.78H26.54Z"/><path class="cls-1" d="M31,8.78H29.56L31.15.12H33l1.6,8.66H33.15l-.26-1.92H31.26Zm.48-3.21h1.2l-.59-3.72h0Z"/><path class="cls-1" d="M35.39,8.78V.12h1.49v3.2h0L38.46.12h1.49L38.34,3.35l1.81,5.43H38.64l-1.21-4h0l-.53,1V8.78Z"/><path class="cls-1" d="M40.79,8.78V.12h4v1.3H42.27V3.65h1.92v1.3H42.27V7.48h2.66v1.3Z"/><path class="cls-1" d="M51.78,3V2.34c0-.73-.34-1-.72-1-.6,0-.79.31-.79,1V6.64c0,.65.19,1,.79,1s.72-.31.72-.88v-1h1.49v1a2.24,2.24,0,0,1-4.49,0V2.22A2.08,2.08,0,0,1,51.06,0a2.15,2.15,0,0,1,2.21,2.38V3Z"/><path class="cls-1" d="M54.78,8.78V.12h1.49V3.65h1.58V.12h1.49V8.78H57.85V4.94H56.27V8.78Z"/><path class="cls-1" d="M61.64,8.78H60.2L61.8.12h1.85l1.59,8.66H63.8l-.26-1.92H61.91Zm.48-3.21h1.2l-.59-3.72h0Z"/><path class="cls-1" d="M67.59,8.78H66.11V.12h2.09c1.67,0,2.52.71,2.52,2.55,0,1.39-.54,2-1,2.18l1.26,3.92H69.42L68.36,5.19a7.17,7.17,0,0,1-.77,0Zm0-4.77h.53c.8,0,1.1-.3,1.1-1.33s-.3-1.33-1.1-1.33h-.53Z"/><path class="cls-1" d="M74.16,4.39h2.43V8.78h-.72l-.28-.65a1.73,1.73,0,0,1-1.5.77,2,2,0,0,1-2-2.22V2.22A2.05,2.05,0,0,1,74.29,0a2.16,2.16,0,0,1,2.23,2.38v.55H75.1c0-1.3-.26-1.63-.85-1.63-.36,0-.66.22-.66.95V6.69c0,.55.18.91.7.91s.82-.34.82-1.2V5.56h-.95Z"/><path class="cls-1" d="M78.11,8.78V.12h4v1.3h-2.5V3.65h1.92v1.3H79.59V7.48h2.66v1.3Z"/><path class="cls-1" d="M5,23.48a1.63,1.63,0,0,1-1.51-.8,2.48,2.48,0,0,1-1.21.28A2.08,2.08,0,0,1,0,20.73V16.27a2.08,2.08,0,0,1,2.28-2.22,2.08,2.08,0,0,1,2.28,2.22v4.46a2.42,2.42,0,0,1-.25,1.12,1.12,1.12,0,0,0,.7.34ZM2.39,19.74a2.18,2.18,0,0,1,.68.53v-4c0-.65-.19-1-.79-1s-.79.31-.79,1v4.39c0,.65.19,1,.79,1a.81.81,0,0,0,.5-.13,1.17,1.17,0,0,0-.4-.47Z"/><path class="cls-1" d="M6,14.17H7.49v6.54c0,.64.25.95.79.95s.79-.31.79-.95V14.17h1.49v6.48a2.09,2.09,0,0,1-2.28,2.3A2.09,2.09,0,0,1,6,20.65Z"/><path class="cls-1" d="M12.2,22.83V14.17h1.49v8.66Z"/><path class="cls-1" d="M16.2,15.47H14.76v-1.3h4.37v1.3H17.69v7.36H16.2Z"/><path class="cls-1" d="M25.38,16.31c-.06-.74-.46-1-.79-1s-.74.31-.74.85c0,1.48,3,2.18,3,4.53a2.12,2.12,0,0,1-2.35,2.22,2.28,2.28,0,0,1-2.23-2.4l1.42-.2c.06.88.41,1.31.89,1.31a.76.76,0,0,0,.86-.79c0-1.72-3-2.17-3-4.65a2,2,0,0,1,2.3-2.16,2.08,2.08,0,0,1,2.06,2.1Z"/><path class="cls-1" d="M34,14.17v8.66H32.66V16.07h0l-1.34,6.76h-.72l-1.34-6.76h0v6.76H27.91V14.17h2l1.06,5.06h0L32,14.17Z"/><path class="cls-1" d="M35.33,16.27a2.08,2.08,0,0,1,2.28-2.22,2.08,2.08,0,0,1,2.28,2.22v4.46a2.08,2.08,0,0,1-2.28,2.22,2.08,2.08,0,0,1-2.28-2.22Zm1.49,4.43c0,.65.19,1,.79,1s.79-.31.79-1V16.31c0-.65-.19-1-.79-1s-.79.31-.79,1Z"/><path class="cls-1" d="M41.26,22.83V14.17h1.49v3.2h0l1.56-3.2h1.49L44.21,17.4,46,22.83H44.51l-1.21-4h0l-.53,1v3.07Z"/><path class="cls-1" d="M46.86,22.83V14.17h1.49v8.66Z"/><path class="cls-1" d="M50,22.83V14.17h1.38l1.81,5h0v-5h1.34v8.66H53.25l-1.9-5.41h0v5.41Z"/><path class="cls-1" d="M58,18.44h2.43v4.39h-.72l-.28-.65a1.73,1.73,0,0,1-1.5.77,2,2,0,0,1-2-2.22V16.27a2.05,2.05,0,0,1,2.18-2.22,2.17,2.17,0,0,1,2.23,2.38V17H59c0-1.3-.26-1.63-.85-1.63-.36,0-.66.22-.66.95v4.45c0,.55.18.91.7.91s.82-.34.82-1.2v-.84H58Z"/><path class="cls-1" d="M67.34,22.83H65.85v-3.6l-1.8-5.06h1.51l1,3.3h0l1-3.3h1.51l-1.8,5.06Z"/><path class="cls-1" d="M70,16.27a2.28,2.28,0,0,1,4.56,0v4.46a2.28,2.28,0,0,1-4.56,0Zm1.49,4.43c0,.65.19,1,.79,1s.79-.31.79-1V16.31c0-.65-.19-1-.79-1s-.79.31-.79,1Z"/><path class="cls-1" d="M76,14.17h1.49v6.54c0,.64.25.95.79.95s.79-.31.79-.95V14.17h1.49v6.48a2.28,2.28,0,1,1-4.56,0Z"/><path class="cls-1" d="M83.47,22.83H82V14.17h2.09c1.67,0,2.52.71,2.52,2.55,0,1.39-.54,2-1,2.18l1.26,3.92H85.29l-1.06-3.59a7.17,7.17,0,0,1-.77,0Zm0-4.77H84c.8,0,1.1-.3,1.1-1.33s-.3-1.33-1.1-1.33h-.53Z"/><path class="cls-1" d="M93.23,14.17h1.22l1,5.52h0l.83-5.52H97.7l-1.52,8.66H94.93l-1.08-5.72h0l-1,5.72H91.57l-1.64-8.66h1.39l.91,5.52h0Z"/><path class="cls-1" d="M99.07,22.83H97.63l1.59-8.66h1.85l1.6,8.66h-1.44L101,20.91H99.33Zm.48-3.21h1.2l-.59-3.72h0Z"/><path class="cls-1" d="M105.56,22.83h-1.49v-3.6l-1.8-5.06h1.51l1,3.3h0l1-3.3h1.51l-1.8,5.06Z"/></g></g></svg>