<?xml version="1.0" encoding="utf-8"?>
<!-- Generator: Adobe Illustrator 21.1.0, SVG Export Plug-In . SVG Version: 6.00 Build 0)  -->
<svg version="1.1" id="Layer_1" xmlns="http://www.w3.org/2000/svg" xmlns:xlink="http://www.w3.org/1999/xlink" x="0px" y="0px"
	 viewBox="0 0 48.8 15.3" style="enable-background:new 0 0 48.8 15.3;" xml:space="preserve">
<style type="text/css">
	.st0{fill:#FFFFFF;}
</style>
<title>Text_YourWay_728x90</title>
<g id="Layer_2">
	<g id="Layer_1-2">
		<path class="st0" d="M5.1,10.5H3.5V6.7L1.6,1.4h1.6l1.1,3.5l0,0l1-3.5H7L5.1,6.7V10.5z"/>
		<path class="st0" d="M7.9,3.6c-0.1-1.2,0.8-2.2,2-2.3c0.1,0,0.3,0,0.4,0c1.2-0.1,2.3,0.8,2.4,2c0,0.1,0,0.3,0,0.4v4.7
			c0.1,1.2-0.8,2.2-2,2.3c-0.1,0-0.3,0-0.4,0c-1.2,0.1-2.3-0.8-2.4-2c0-0.1,0-0.3,0-0.4C7.9,8.3,7.9,3.6,7.9,3.6z M9.4,8.2
			c0,0.7,0.2,1,0.8,1s0.8-0.3,0.8-1V3.6c0-0.7-0.2-1-0.8-1S9.4,3,9.4,3.6V8.2z"/>
		<path class="st0" d="M14.2,1.4h1.6v6.9c0,0.7,0.3,1,0.8,1s0.8-0.3,0.8-1V1.4H19v6.8c0.1,1.2-0.7,2.3-1.9,2.4c-0.2,0-0.3,0-0.5,0
			c-1.2,0.1-2.3-0.8-2.4-2c0-0.2,0-0.3,0-0.5L14.2,1.4z"/>
		<path class="st0" d="M22,10.5h-1.5V1.4h2.2c1.8,0,2.6,0.7,2.6,2.7c0,1.5-0.6,2.1-1.1,2.3l1.3,4.1h-1.6l-1.1-3.8
			c-0.3,0-0.5,0-0.8,0V10.5z M22,5.5h0.5c0.8,0,1.2-0.3,1.2-1.4s-0.3-1.4-1.2-1.4H22V5.5z"/>
		<path class="st0" d="M32.3,1.4h1.3l1.1,5.8l0,0l0.9-5.8H37l-1.6,9.1H34l-1.1-6l0,0l-1.1,6h-1.3l-1.7-9.1h1.5l1,5.8l0,0L32.3,1.4z"
			/>
		<path class="st0" d="M38.4,10.5h-1.5l1.7-9.1h1.9l1.7,9.1h-1.5l-0.3-2h-1.7L38.4,10.5z M38.9,7.1h1.3l-0.6-3.9l0,0L38.9,7.1z"/>
		<path class="st0" d="M45.2,10.5h-1.6V6.7l-1.9-5.3h1.6l1.1,3.5l0,0l1-3.5h1.7l-1.9,5.3C45.2,6.7,45.2,10.5,45.2,10.5z"/>
	</g>
</g>
</svg>
