<svg xmlns="http://www.w3.org/2000/svg" viewBox="0 0 60.48 35.05"><defs><style>.cls-1{fill:#fff;}</style></defs><title>Text_TakeCharge</title><g id="Layer_2" data-name="Layer 2"><g id="Layer_1-2" data-name="Layer 1"><path class="cls-1" d="M3.1,1.42H1.66V.12H6v1.3H4.59V8.78H3.1Z"/><path class="cls-1" d="M7.55,8.78H6.11L7.71.12H9.56l1.6,8.66H9.71L9.45,6.86H7.82ZM8,5.56h1.2L8.64,1.85h0Z"/><path class="cls-1" d="M11.95,8.78V.12h1.49v3.2h0L15,.12H16.5L14.9,3.35l1.81,5.43H15.2L14,4.75h0l-.53,1V8.78Z"/><path class="cls-1" d="M17.35,8.78V.12h4v1.3H18.83V3.65h1.92v1.3H18.83V7.48h2.66v1.3Z"/><path class="cls-1" d="M28.33,3V2.34c0-.73-.34-1-.72-1-.6,0-.79.31-.79,1V6.64c0,.65.19,1,.79,1s.72-.31.72-.88v-1h1.49v1A2.06,2.06,0,0,1,27.62,8.9a2.08,2.08,0,0,1-2.28-2.22V2.22A2.08,2.08,0,0,1,27.62,0a2.15,2.15,0,0,1,2.21,2.38V3Z"/><path class="cls-1" d="M31.34,8.78V.12h1.49V3.65h1.58V.12h1.49V8.78H34.41V4.94H32.82V8.78Z"/><path class="cls-1" d="M38.2,8.78H36.76L38.36.12H40.2l1.6,8.66H40.36L40.1,6.86H38.46Zm.48-3.21h1.2l-.59-3.72h0Z"/><path class="cls-1" d="M44.15,8.78H42.67V.12h2.09c1.67,0,2.52.71,2.52,2.55,0,1.39-.54,2-1,2.18l1.26,3.92H46L44.92,5.19a7.17,7.17,0,0,1-.77,0Zm0-4.77h.53c.8,0,1.1-.3,1.1-1.33s-.3-1.33-1.1-1.33h-.53Z"/><path class="cls-1" d="M50.72,4.39h2.43V8.78h-.72l-.28-.65a1.73,1.73,0,0,1-1.5.77,2,2,0,0,1-2-2.22V2.22A2.05,2.05,0,0,1,50.85,0a2.16,2.16,0,0,1,2.23,2.38v.55H51.66c0-1.3-.26-1.63-.85-1.63-.36,0-.66.22-.66.95V6.69c0,.55.18.91.7.91s.82-.34.82-1.2V5.56h-.95Z"/><path class="cls-1" d="M54.67,8.78V.12h4v1.3h-2.5V3.65h1.92v1.3H56.15V7.48h2.66v1.3Z"/><path class="cls-1" d="M5,24.24a1.63,1.63,0,0,1-1.51-.8,2.48,2.48,0,0,1-1.21.28A2.08,2.08,0,0,1,0,21.5V17a2.08,2.08,0,0,1,2.28-2.22A2.08,2.08,0,0,1,4.56,17V21.5a2.42,2.42,0,0,1-.25,1.12,1.12,1.12,0,0,0,.7.34ZM2.39,20.5a2.19,2.19,0,0,1,.68.53v-4c0-.65-.19-1-.79-1s-.79.31-.79,1v4.39c0,.65.19,1,.79,1a.82.82,0,0,0,.5-.13,1.17,1.17,0,0,0-.4-.47Z"/><path class="cls-1" d="M6,14.94H7.49v6.54c0,.64.25.95.79.95s.79-.31.79-.95V14.94h1.49v6.48a2.09,2.09,0,0,1-2.28,2.3A2.09,2.09,0,0,1,6,21.41Z"/><path class="cls-1" d="M12.2,23.59V14.94h1.49v8.66Z"/><path class="cls-1" d="M16.2,16.23H14.76v-1.3h4.37v1.3H17.69v7.36H16.2Z"/><path class="cls-1" d="M25.38,17.07c-.06-.74-.46-1-.79-1s-.74.31-.74.85c0,1.48,3,2.18,3,4.53a2.12,2.12,0,0,1-2.35,2.22,2.28,2.28,0,0,1-2.23-2.4l1.42-.2c.06.88.41,1.31.89,1.31a.76.76,0,0,0,.86-.79c0-1.72-3-2.17-3-4.65a2,2,0,0,1,2.3-2.16,2.08,2.08,0,0,1,2.06,2.1Z"/><path class="cls-1" d="M34,14.94v8.66H32.66V16.83h0l-1.34,6.76h-.72l-1.34-6.76h0v6.76h-1.3V14.94h2L30.92,20h0L32,14.94Z"/><path class="cls-1" d="M35.33,17a2.08,2.08,0,0,1,2.28-2.22A2.08,2.08,0,0,1,39.88,17V21.5a2.08,2.08,0,0,1-2.28,2.22,2.08,2.08,0,0,1-2.28-2.22Zm1.49,4.43c0,.65.19,1,.79,1s.79-.31.79-1V17.07c0-.65-.19-1-.79-1s-.79.31-.79,1Z"/><path class="cls-1" d="M41.26,23.59V14.94h1.49v3.2h0l1.56-3.2h1.49l-1.61,3.23L46,23.59H44.51l-1.21-4h0l-.53,1v3.07Z"/><path class="cls-1" d="M46.86,23.59V14.94h1.49v8.66Z"/><path class="cls-1" d="M50,23.59V14.94h1.38l1.81,5h0v-5h1.34v8.66h-1.3l-1.9-5.41h0v5.41Z"/><path class="cls-1" d="M58,19.2h2.43v4.39h-.72l-.28-.65a1.73,1.73,0,0,1-1.5.77,2,2,0,0,1-2-2.22V17a2.05,2.05,0,0,1,2.18-2.22,2.16,2.16,0,0,1,2.23,2.38v.55H59c0-1.3-.26-1.63-.85-1.63-.36,0-.66.22-.66.95v4.45c0,.55.18.91.7.91s.82-.34.82-1.2v-.84H58Z"/><path class="cls-1" d="M11.87,34.93H10.38v-3.6l-1.8-5.06H10.1l1,3.3h0l1-3.3h1.51l-1.8,5.06Z"/><path class="cls-1" d="M14.51,28.37a2.08,2.08,0,0,1,2.28-2.22,2.08,2.08,0,0,1,2.28,2.22v4.46a2.08,2.08,0,0,1-2.28,2.22,2.08,2.08,0,0,1-2.28-2.22ZM16,32.8c0,.65.19,1,.79,1s.79-.31.79-1V28.41c0-.65-.19-1-.79-1s-.79.31-.79,1Z"/><path class="cls-1" d="M20.51,26.27H22v6.54c0,.64.25.95.79.95s.79-.31.79-.95V26.27h1.49v6.48a2.09,2.09,0,0,1-2.28,2.3,2.09,2.09,0,0,1-2.28-2.3Z"/><path class="cls-1" d="M28,34.93H26.51V26.27H28.6c1.67,0,2.52.71,2.52,2.55,0,1.39-.54,2-1,2.18l1.26,3.92H29.82l-1.06-3.59a7.17,7.17,0,0,1-.77,0Zm0-4.77h.53c.8,0,1.1-.3,1.1-1.33s-.3-1.33-1.1-1.33H28Z"/><path class="cls-1" d="M37.76,26.27H39l1,5.52h0l.83-5.52h1.39l-1.52,8.66H39.46l-1.08-5.72h0l-1,5.72H36.1l-1.64-8.66h1.39l.91,5.52h0Z"/><path class="cls-1" d="M43.6,34.93H42.16l1.6-8.66H45.6l1.6,8.66H45.76L45.5,33H43.86Zm.48-3.21h1.2L44.69,28h0Z"/><path class="cls-1" d="M50.09,34.93H48.6v-3.6l-1.8-5.06h1.51l1,3.3h0l1-3.3h1.51l-1.8,5.06Z"/></g></g></svg>