<?xml version="1.0" encoding="utf-8"?>
<!-- Generator: Adobe Illustrator 21.1.0, SVG Export Plug-In . SVG Version: 6.00 Build 0)  -->
<svg version="1.1" id="Layer_1" xmlns="http://www.w3.org/2000/svg" xmlns:xlink="http://www.w3.org/1999/xlink" x="0px" y="0px"
	 viewBox="0 0 62.5 12.7" style="enable-background:new 0 0 62.5 12.7;" xml:space="preserve">
<style type="text/css">
	.st0{fill:#FFFFFF;}
</style>
<title>Text_QuitSmoking_728x90</title>
<g id="Layer_2">
	<g id="Layer_1-2">
		<path class="st0" d="M7,11.4c-0.6,0-1.2-0.3-1.5-0.8c-0.4,0.2-0.8,0.3-1.2,0.3C3.1,10.9,2.1,10.1,2,9c0-0.1,0-0.2,0-0.4V4.1
			C1.9,3,2.8,2,3.9,1.9c0.1,0,0.3,0,0.4,0c1.1-0.1,2.2,0.7,2.3,1.9c0,0.1,0,0.2,0,0.4v4.5c0,0.4-0.1,0.8-0.2,1.1
			C6.5,9.9,6.8,10,7,10.1L7,11.4z M4.4,7.6c0.3,0.1,0.5,0.3,0.7,0.5v-4c0-0.7-0.2-1-0.8-1s-0.8,0.3-0.8,1v4.4c0,0.6,0.2,1,0.8,1
			c0.2,0,0.4,0,0.5-0.1C4.7,9.3,4.6,9.1,4.4,9L4.4,7.6z"/>
		<path class="st0" d="M8,2h1.5v6.6c0,0.6,0.2,0.9,0.8,0.9s0.8-0.3,0.8-0.9V2h1.5v6.5c0.1,1.1-0.7,2.2-1.9,2.3c-0.1,0-0.3,0-0.4,0
			C9.2,11,8.1,10.1,8,9c0-0.2,0-0.3,0-0.5V2z"/>
		<path class="st0" d="M14.2,10.7V2h1.5v8.7H14.2z"/>
		<path class="st0" d="M18.2,3.3h-1.4V2h4.4v1.3h-1.4v7.4h-1.5V3.3z"/>
		<path class="st0" d="M27.4,4.2c-0.1-0.7-0.5-1-0.8-1S25.9,3.5,25.9,4c0,1.5,3,2.2,3,4.5c0.1,1.2-0.8,2.2-2,2.2c-0.1,0-0.2,0-0.3,0
			c-1.3,0-2.3-1.1-2.2-2.3c0,0,0,0,0-0.1l1.4-0.2c0.1,0.9,0.4,1.3,0.9,1.3c0.4,0.1,0.8-0.2,0.9-0.7c0,0,0-0.1,0-0.1
			c0-1.7-3-2.2-3-4.7C24.4,3,25.2,2,26.3,1.9c0.2,0,0.3,0,0.5,0c1.1,0,2.1,1,2.1,2.1c0,0,0,0,0,0L27.4,4.2z"/>
		<path class="st0" d="M36,2v8.7h-1.3V3.9l0,0l-1.4,6.8h-0.7l-1.3-6.8l0,0v6.8H30V2h2l1,5.1l0,0L34,2H36z"/>
		<path class="st0" d="M37.4,4.1C37.3,3,38.1,2,39.3,1.9c0.1,0,0.2,0,0.4,0c1.1-0.1,2.2,0.7,2.3,1.9c0,0.1,0,0.2,0,0.4v4.5
			c0.1,1.1-0.8,2.1-1.9,2.2c-0.1,0-0.2,0-0.4,0c-1.1,0.1-2.2-0.7-2.3-1.9c0-0.1,0-0.2,0-0.4V4.1z M38.9,8.6c0,0.6,0.2,1,0.8,1
			s0.8-0.3,0.8-1V4.2c0-0.7-0.2-1-0.8-1s-0.8,0.3-0.8,1V8.6z"/>
		<path class="st0" d="M43.3,10.7V2h1.5v3.2l0,0L46.4,2h1.5l-1.6,3.3l1.8,5.4h-1.5l-1.2-4l0,0l-0.5,1v3H43.3z"/>
		<path class="st0" d="M48.9,10.7V2h1.5v8.7H48.9z"/>
		<path class="st0" d="M52,10.7V2h1.4l1.8,5l0,0V2h1.3v8.7h-1.2l-1.9-5.4l0,0v5.4H52z"/>
		<path class="st0" d="M60.1,6.3h2.4v4.4h-0.7l-0.3-0.6c-0.3,0.5-0.9,0.8-1.5,0.8c-1.1,0-2-0.9-2-2c0-0.1,0-0.2,0-0.2V4.1
			C57.9,3,58.8,2,59.9,1.9c0.1,0,0.2,0,0.3,0c1.2-0.1,2.2,0.9,2.2,2.1c0,0.1,0,0.2,0,0.3v0.6H61c0-1.3-0.3-1.6-0.8-1.6
			c-0.4,0-0.7,0.2-0.7,0.9v4.4c0,0.6,0.2,0.9,0.7,0.9S61,9.2,61,8.3V7.5h-1L60.1,6.3z"/>
	</g>
</g>
</svg>
